<?xml version="1.0" encoding="UTF-8"?>
<svg width="376px" height="193px" viewBox="0 0 376 193" version="1.1" xmlns="http://www.w3.org/2000/svg" xmlns:xlink="http://www.w3.org/1999/xlink">
    <!-- Generator: Sketch 51.3 (57544) - http://www.bohemiancoding.com/sketch -->
    <title>Group 17</title>
    <desc>Created with Sketch.</desc>
    <defs></defs>
    <g id="Page-1" stroke="none" stroke-width="1" fill="none" fill-rule="evenodd">
        <g id="Artboard-1" transform="translate(-123.000000, -306.000000)" fill="#5373D9">
            <g id="Group-17" transform="translate(123.000000, 305.890000)">
                <path d="M62.9468,29.0499 C61.1488,30.2669 58.8648,30.8739 56.0958,30.8739 C52.9788,30.8739 50.4498,30.1869 48.5068,28.8099 C46.5638,27.4339 45.5928,25.5019 45.5928,23.0139 L44.4188,23.0139 C44.4188,24.8489 44.8788,26.4409 45.7998,27.7879 C46.7188,29.1369 48.0928,30.1759 49.9208,30.9049 C51.7468,31.6349 53.8048,31.9999 56.0958,31.9999 C58.1548,31.9999 60.0098,31.6799 61.6638,31.0409 C63.3158,30.4019 64.5918,29.4949 65.4908,28.3209 C66.3888,27.1459 66.8398,25.7939 66.8398,24.2649 C66.8398,21.8609 65.8238,19.9419 63.7948,18.5099 C62.1998,17.3839 59.6838,16.3939 56.2488,15.5389 C52.8118,14.6839 50.3468,13.7009 48.8548,12.5889 C47.3608,11.4769 46.6148,10.0109 46.6148,8.1899 C46.6148,6.3969 47.4738,4.9049 49.1918,3.7169 C50.9098,2.5289 53.1608,1.9349 55.9438,1.9349 C58.7138,1.9349 60.9678,2.6749 62.7078,4.1539 C64.4468,5.6349 65.3168,7.5089 65.3168,9.7739 L66.4908,9.7739 C66.4908,8.0509 66.0488,6.5039 65.1648,5.1349 C64.2798,3.7659 63.0298,2.7019 61.4138,1.9449 C59.7968,1.1879 57.9728,0.8089 55.9438,0.8089 C52.8268,0.8089 50.2978,1.4929 48.3538,2.8629 C46.4118,4.2319 45.4398,6.0209 45.4398,8.2309 C45.4398,9.6209 45.7598,10.8029 46.3968,11.7759 C47.0348,12.7489 48.0398,13.6039 49.4088,14.3399 C50.7788,15.0769 52.8348,15.8069 55.5748,16.5289 C58.3138,17.2519 60.3618,17.9569 61.7178,18.6459 C63.0728,19.3339 64.0658,20.1259 64.6968,21.0229 C65.3278,21.9189 65.6428,23.0139 65.6428,24.3069 C65.6428,26.2529 64.7438,27.8339 62.9468,29.0499" id="Fill-2"></path>
                <polygon id="Fill-4" points="95.5015 3.0392 108.5715 31.5832 109.5065 31.5832 122.6415 2.8932 122.6415 31.5832 123.8155 31.5832 123.8155 1.2262 122.0985 1.2262 109.0275 29.9352 96.0015 1.2262 94.3275 1.2262 94.3275 31.5832 95.5015 31.5832"></polygon>
                <path d="M152.5659,18.6769 L152.5659,14.2359 C152.5659,10.4419 153.5369,7.4429 155.4789,5.2389 C157.4219,3.0359 160.0249,1.9349 163.2869,1.9349 C166.5919,1.9349 169.2159,3.0429 171.1589,5.2599 C173.1009,7.4779 174.0729,10.4199 174.0729,14.0899 L174.0729,18.5099 C174.0729,22.3329 173.1089,25.3489 171.1799,27.5589 C169.2529,29.7699 166.6349,30.8739 163.3299,30.8739 C161.1559,30.8739 159.2559,30.3739 157.6319,29.3729 C156.0079,28.3719 154.7579,26.9449 153.8809,25.0879 C153.0029,23.2329 152.5659,21.0959 152.5659,18.6769 M163.3299,31.9999 C165.6929,31.9999 167.7809,31.4479 169.5929,30.3429 C171.4049,29.2379 172.7999,27.6739 173.7799,25.6519 C174.7579,23.6289 175.2479,21.3039 175.2479,18.6769 L175.2479,14.1319 C175.2479,11.5319 174.7539,9.2149 173.7679,7.1779 C172.7829,5.1419 171.3789,3.5719 169.5599,2.4659 C167.7409,1.3619 165.6499,0.8089 163.2869,0.8089 C160.9379,0.8089 158.8539,1.3619 157.0349,2.4659 C155.2139,3.5719 153.8159,5.1389 152.8369,7.1679 C151.8589,9.1979 151.3699,11.5189 151.3699,14.1319 L151.3699,18.5099 C151.3699,22.6389 152.4709,25.9189 154.6749,28.3519 C156.8779,30.7839 159.7629,31.9999 163.3299,31.9999" id="Fill-6"></path>
                <polygon id="Fill-8" points="203.9736 20.0948 209.0406 15.6128 223.5896 31.5828 225.1116 31.5828 209.9106 14.8408 224.0246 1.2258 222.3276 1.2258 209.1936 13.8808 203.9736 18.7818 203.9736 1.2258 202.7996 1.2258 202.7996 31.5828 203.9736 31.5828"></polygon>
                <polygon id="Fill-10" points="253.252 31.583 254.427 31.583 254.427 1.226 253.252 1.226"></polygon>
                <polygon id="Fill-12" points="284.502 3.1437 304.944 31.5827 306.119 31.5827 306.119 1.2257 304.944 1.2257 304.944 29.6027 284.502 1.2257 283.307 1.2257 283.307 31.5827 284.502 31.5827"></polygon>
                <path d="M339.3486,30.3527 C341.1896,31.4517 343.2856,31.9997 345.6336,31.9997 C348.0396,31.9997 350.2446,31.6527 352.2446,30.9567 C354.2446,30.2627 355.6446,29.3867 356.4416,28.3307 L356.4416,17.8227 L345.5896,17.8227 L345.5896,18.9487 L355.2676,18.9487 L355.2676,27.8037 C354.5856,28.6537 353.3386,29.3767 351.5276,29.9757 C349.7146,30.5757 347.7496,30.8737 345.6336,30.8737 C343.4736,30.8737 341.5556,30.3637 339.8816,29.3417 C338.2066,28.3207 336.9096,26.8777 335.9896,25.0157 C335.0686,23.1527 334.6086,21.0337 334.6086,18.6567 L334.6086,13.8187 C334.6086,10.2607 335.5866,7.3897 337.5436,5.2077 C339.5006,3.0257 342.0746,1.9347 345.2636,1.9347 C348.0906,1.9347 350.3596,2.5817 352.0706,3.8737 C353.7816,5.1657 354.8316,7.0217 355.2236,9.4407 L356.3986,9.4407 C356.0786,6.7717 354.9306,4.6657 352.9516,3.1237 C350.9726,1.5807 348.4106,0.8087 345.2636,0.8087 C343.0016,0.8087 340.9646,1.3477 339.1536,2.4237 C337.3406,3.5017 335.9346,5.0277 334.9346,7.0007 C333.9336,8.9747 333.4336,11.2067 333.4336,13.6937 L333.4336,18.9067 C333.4626,21.4367 333.9946,23.7027 335.0326,25.7037 C336.0686,27.7057 337.5076,29.2547 339.3486,30.3527" id="Fill-13"></path>
                <path d="M340.5273,110.6085 C335.2983,107.4875 326.9213,103.7605 315.3933,99.4205 C303.8663,95.0835 298.7563,89.5265 300.0633,82.7455 C300.8893,77.9355 303.5773,74.1055 308.1193,71.2585 C312.6613,68.4115 317.8893,67.0545 323.8083,67.1915 C329.8633,67.3285 334.2143,69.1065 336.8643,72.5305 C339.5133,75.9545 340.7373,80.5125 340.5273,86.2065 L375.6243,86.2065 C375.7623,72.3085 371.3063,61.2285 362.2563,52.9575 C353.2073,44.6865 341.2523,40.4165 326.3873,40.1465 L307.4113,40.1385 L297.0083,40.1385 L292.1063,40.1385 L247.3273,40.1385 L173.3913,40.1385 L158.2353,40.1385 C162.6073,41.3285 166.6883,43.0035 170.4473,45.2125 C171.0873,45.5875 171.6523,46.0595 172.2713,46.4625 C179.1703,50.9565 184.8303,57.0525 189.1153,64.9265 C189.7393,66.0705 190.2363,67.2915 190.7913,68.4785 C194.3853,76.1815 196.6073,84.7215 197.2733,94.2095 C197.8323,101.9435 197.3603,110.7485 195.8623,120.6125 C194.3603,130.4815 191.6063,139.8945 187.5983,148.8495 C183.5903,157.8095 178.4143,165.7045 172.0683,172.5375 C165.7243,179.3715 158.2473,184.7915 149.6383,188.7995 C146.3043,190.3515 142.7623,191.4885 139.1113,192.4085 L190.4393,192.4085 L226.3123,192.4085 L247.3273,70.9205 L247.3273,71.3045 L267.4793,71.3045 C266.1383,74.8505 265.3023,78.5855 265.0723,82.5465 C264.0303,98.6445 272.8763,111.7345 291.5533,121.8265 C291.7333,121.9235 291.9253,122.0155 292.1063,122.1115 C293.2333,122.7125 294.3893,123.3035 295.5823,123.8845 C296.6713,124.4145 297.7763,124.9395 298.9293,125.4485 L315.8583,132.3625 C318.0323,133.2845 319.9143,134.2955 321.5383,135.3835 C327.3183,139.2565 329.6323,144.1775 328.4523,150.1575 C327.5583,154.9005 325.1303,158.6125 321.1733,161.2905 C317.2173,163.9705 312.2813,165.3055 306.3623,165.3055 C300.2083,165.3055 295.5133,164.0735 292.1063,161.7515 C291.9233,161.6275 291.7293,161.5135 291.5533,161.3825 C290.7573,160.7875 289.9623,160.1925 289.3283,159.4595 C285.9573,155.5635 284.4783,149.8175 284.8913,142.2275 L249.4873,142.1235 C249.0743,157.0385 253.8893,169.0685 263.9383,178.2195 C268.8933,182.7605 274.8423,186.2175 281.7943,188.5905 C283.6183,189.2135 285.4873,189.7485 287.3903,190.2175 C292.7443,191.5345 298.4103,192.2535 304.4023,192.3545 C315.4793,192.4875 325.4753,190.7945 334.3863,187.2675 C343.2983,183.7435 350.2683,178.7635 355.2913,172.3225 C360.3123,165.8825 363.1013,158.3915 363.6503,149.8515 C364.6853,133.3835 356.9753,120.2985 340.5273,110.6085" id="Fill-14"></path>
                <path d="M144.6714,156.7975 C150.8054,150.2795 155.2324,140.7985 157.9504,128.3525 C160.6704,115.9085 161.8224,104.4205 161.4034,93.8935 C160.7044,76.4645 153.9424,67.3985 141.1114,66.7025 C134.5654,66.3805 128.7814,68.0285 123.7294,71.5635 C124.9014,73.9435 125.9624,76.4215 126.8614,79.0435 C130.4174,89.5695 131.4974,100.9365 130.1024,113.1365 L129.3714,119.5135 C127.4894,133.1815 122.9564,145.5565 115.7754,156.6425 C114.4804,158.6435 113.0934,160.5375 111.6634,162.3835 C114.6534,164.5395 118.2964,165.7815 122.7054,165.9475 C131.2124,166.3655 138.5334,163.3195 144.6714,156.7975" id="Fill-15"></path>
                <path d="M94.4419,102.9938 L94.2329,106.4428 C92.8379,125.9638 88.4299,140.4688 81.0029,149.9488 C77.9669,153.8258 74.5039,156.8658 70.6569,159.1578 C65.0959,162.4708 58.7119,164.1718 51.4579,164.1718 L40.9999,164.0688 L57.6289,68.3758 L71.3319,68.4778 C75.7069,68.6338 79.4579,69.6528 82.6289,71.4758 C85.2169,72.9638 87.4269,74.9768 89.2129,77.5788 C93.1869,83.3668 94.9279,91.8358 94.4419,102.9938 M102.2079,138.6538 C101.8619,133.1468 102.3479,125.3708 103.6749,115.3308 C105.7669,99.0878 110.0529,86.8008 116.5369,78.4688 C118.7329,75.6468 121.1409,73.3738 123.7289,71.5638 C119.5379,63.0568 113.6279,56.0708 105.9459,50.6498 C105.3149,50.2048 104.6569,49.8148 104.0109,49.3968 C94.6109,43.3228 83.7649,40.2448 71.4339,40.2448 L26.6729,40.1388 L0.3189,192.4088 L26.6729,192.4088 L51.4579,192.4088 C64.2629,192.2708 76.1989,189.1728 87.2729,183.1438 C87.5359,183.0018 87.8029,182.8798 88.0639,182.7338 C97.3209,177.5638 105.1709,170.7618 111.6639,162.3838 C105.8589,158.1968 102.6699,150.3428 102.2079,138.6538" id="Fill-16"></path>
            </g>
        </g>
    </g>
</svg>